<svg width="85" height="21" viewBox="0 0 85 21" fill="none" xmlns="http://www.w3.org/2000/svg">
<path d="M5.63672 15.293L9.03516 0.9375H10.9336L11.3672 3.32812L7.74609 18H5.70703L5.63672 15.293ZM3.89062 0.9375L6.70312 15.293L6.46875 18H4.19531L0.410156 0.9375H3.89062ZM14.3555 15.2344L17.1328 0.9375H20.6133L16.8398 18H14.5664L14.3555 15.2344ZM12 0.9375L15.4219 15.3516L15.3281 18H13.2891L9.64453 3.31641L10.1133 0.9375H12ZM26.2617 0.9375V18H22.7578V0.9375H26.2617ZM36.832 0.9375V18H33.3281V0.9375H36.832ZM42.082 0.9375V3.69141H28.1602V0.9375H42.082ZM55.4648 7.88672V10.6289H46.5586V7.88672H55.4648ZM47.6016 0.9375V18H44.0859V0.9375H47.6016ZM57.9727 0.9375V18H54.4688V0.9375H57.9727ZM70.1602 18V20.5664H59.5195V18H70.1602ZM78.3633 11.918H74.0156V9.17578H78.3633C79.0352 9.17578 79.582 9.06641 80.0039 8.84766C80.4258 8.62109 80.7344 8.30859 80.9297 7.91016C81.125 7.51172 81.2227 7.0625 81.2227 6.5625C81.2227 6.05469 81.125 5.58203 80.9297 5.14453C80.7344 4.70703 80.4258 4.35547 80.0039 4.08984C79.582 3.82422 79.0352 3.69141 78.3633 3.69141H75.2344V18H71.7188V0.9375H78.3633C79.6992 0.9375 80.8438 1.17969 81.7969 1.66406C82.7578 2.14063 83.4922 2.80078 84 3.64453C84.5078 4.48828 84.7617 5.45312 84.7617 6.53906C84.7617 7.64062 84.5078 8.59375 84 9.39844C83.4922 10.2031 82.7578 10.8242 81.7969 11.2617C80.8438 11.6992 79.6992 11.918 78.3633 11.918Z" fill="#E88B8B"/>
</svg>
