<svg width="37" height="39" viewBox="0 0 37 39" fill="none" xmlns="http://www.w3.org/2000/svg">
<path d="M2.03039 23.8063L2.69956 19.8793C3.49156 15.2354 3.88573 12.9126 5.45323 11.5376C7.02073 10.1644 9.27206 10.1644 13.7729 10.1644H23.0606C27.5614 10.1644 29.8127 10.1644 31.3802 11.5394C32.9477 12.9144 33.3419 15.2354 34.1339 19.8793L34.8031 23.8063C35.8994 30.2321 36.4457 33.4441 34.7609 35.5543C33.0742 37.6644 29.9576 37.6644 23.7297 37.6644H13.1037C6.87406 37.6644 3.75923 37.6644 2.07256 35.5561C0.385893 33.4441 0.935893 30.2321 2.03039 23.8063Z" stroke="black" stroke-width="1.5" stroke-linecap="round" stroke-linejoin="round"/>
<path d="M10.167 13.8311L10.5612 8.31274C10.7036 6.3265 11.5931 4.46793 13.0507 3.11112C14.5082 1.75432 16.4257 1 18.417 1C20.4083 1 22.3258 1.75432 23.7833 3.11112C25.2409 4.46793 26.1304 6.3265 26.2728 8.31274L26.667 13.8311" stroke="black" stroke-width="1.5" stroke-linecap="round" stroke-linejoin="round"/>
</svg>
