<svg width="24" height="24" viewBox="0 0 24 24" fill="none" xmlns="http://www.w3.org/2000/svg">
<rect width="24" height="24" fill="white"/>
<path d="M3.2886 14.6212L3.6536 12.4792C4.0856 9.94618 4.30059 8.67918 5.1556 7.92918C6.0106 7.18018 7.2386 7.18018 9.6936 7.18018H14.7596C17.2146 7.18018 18.4426 7.18018 19.2976 7.93018C20.1526 8.68018 20.3676 9.94618 20.7996 12.4792L21.1646 14.6212C21.7626 18.1262 22.0606 19.8782 21.1416 21.0292C20.2216 22.1802 18.5216 22.1802 15.1246 22.1802H9.3286C5.9306 22.1802 4.2316 22.1802 3.3116 21.0302C2.39159 19.8782 2.6916 18.1262 3.2886 14.6212Z" stroke="#1A1A1A" stroke-width="1.5" stroke-linecap="round" stroke-linejoin="round"/>
<path d="M7.72656 9.18041L7.94156 6.17041C8.01924 5.087 8.50443 4.07324 9.29947 3.33316C10.0945 2.59309 11.1404 2.18164 12.2266 2.18164C13.3127 2.18164 14.3586 2.59309 15.1537 3.33316C15.9487 4.07324 16.4339 5.087 16.5116 6.17041L16.7266 9.18041" stroke="#1A1A1A" stroke-width="1.5" stroke-linecap="round" stroke-linejoin="round"/>
</svg>
