<svg width="37" height="37" viewBox="0 0 37 37" fill="none" xmlns="http://www.w3.org/2000/svg">
<path d="M1 29.3889C1 26.0884 1.92187 22.9231 3.56282 20.5894C5.20376 18.2556 7.42936 16.9445 9.75 16.9445H27.25C29.5706 16.9445 31.7962 18.2556 33.4372 20.5894C35.0781 22.9231 36 26.0884 36 29.3889C36 31.0391 35.5391 32.6218 34.7186 33.7887C33.8981 34.9556 32.7853 35.6111 31.625 35.6111H5.375C4.21468 35.6111 3.10188 34.9556 2.28141 33.7887C1.46094 32.6218 1 31.0391 1 29.3889Z" stroke="black" stroke-width="1.5" stroke-linejoin="round"/>
<path d="M18.4997 13.8333C22.0435 13.8333 24.9163 10.9605 24.9163 7.41667C24.9163 3.87284 22.0435 1 18.4997 1C14.9558 1 12.083 3.87284 12.083 7.41667C12.083 10.9605 14.9558 13.8333 18.4997 13.8333Z" stroke="black" stroke-width="1.5"/>
</svg>
