<svg width="24" height="24" viewBox="0 0 24 24" fill="none" xmlns="http://www.w3.org/2000/svg">
<rect width="24" height="24" fill="white"/>
<path d="M2.18164 18.2122C2.18164 16.4119 2.68448 14.6854 3.57954 13.4124C4.4746 12.1395 5.68856 11.4243 6.95437 11.4243H16.4998C17.7656 11.4243 18.9796 12.1395 19.8747 13.4124C20.7697 14.6854 21.2726 16.4119 21.2726 18.2122C21.2726 19.1123 21.0211 19.9756 20.5736 20.6121C20.1261 21.2486 19.5191 21.6061 18.8862 21.6061H4.568C3.9351 21.6061 3.32812 21.2486 2.88059 20.6121C2.43306 19.9756 2.18164 19.1123 2.18164 18.2122Z" stroke="#1A1A1A" stroke-width="1.5" stroke-linejoin="round"/>
<path d="M11.7266 9.72705C13.6596 9.72705 15.2266 8.16005 15.2266 6.22705C15.2266 4.29405 13.6596 2.72705 11.7266 2.72705C9.79357 2.72705 8.22656 4.29405 8.22656 6.22705C8.22656 8.16005 9.79357 9.72705 11.7266 9.72705Z" stroke="#1A1A1A" stroke-width="1.5"/>
</svg>
