<svg width="100" height="100" viewBox="0 0 100 100" fill="none" xmlns="http://www.w3.org/2000/svg">
<rect width="100" height="100" fill="white"/>
<path d="M29.1586 71.5786C26.2933 68.8112 24.0079 65.5009 22.4356 61.8408C20.8633 58.1807 20.0357 54.2441 20.0011 50.2607C19.9665 46.2773 20.7256 42.3269 22.234 38.64C23.7424 34.9531 25.97 31.6036 28.7868 28.7868C31.6036 25.97 34.9531 23.7424 38.64 22.234C42.3269 20.7256 46.2773 19.9665 50.2607 20.0011C54.2441 20.0357 58.1807 20.8633 61.8408 22.4356C65.5009 24.0079 68.8112 26.2933 71.5786 29.1586C77.0434 34.8167 80.0672 42.3948 79.9989 50.2607C79.9305 58.1266 76.7754 65.651 71.2132 71.2132C65.651 76.7754 58.1266 79.9305 50.2607 79.9989C42.3948 80.0672 34.8167 77.0434 29.1586 71.5786ZM47.3686 35.3686V53.3686H53.3686V35.3686H47.3686ZM47.3686 59.3686V65.3686H53.3686V59.3686H47.3686Z" fill="#E88B8B"/>
</svg>
