<svg width="100" height="100" viewBox="0 0 100 100" fill="none" xmlns="http://www.w3.org/2000/svg">
<rect width="100" height="100" fill="white"/>
<path d="M51.1307 20H28.6261C27.134 20 25.703 20.5928 24.6479 21.6479C23.5928 22.703 23 24.134 23 25.6261V70.6353C23 72.1274 23.5928 73.5585 24.6479 74.6136C25.703 75.6687 27.134 76.2614 28.6261 76.2614H48.3176C47.1643 75.5582 46.0672 74.6861 45.1107 73.7297C43.3433 72.1038 41.9145 70.1447 40.9065 67.965C39.8985 65.7853 39.3312 63.4278 39.2371 61.0282C39.143 58.6285 39.524 56.2339 40.3582 53.9819C41.1924 51.7299 42.4633 49.6649 44.098 47.9057C50.2587 41.098 60.4982 40.0572 68.0091 45.3176V36.8784L51.1307 20ZM48.3176 39.6915V24.2196L63.7895 39.6915H48.3176ZM68.8812 67.5409C72.6226 61.6053 70.8222 53.7569 64.9429 50.0436C59.0073 46.3022 51.1307 48.1307 47.4456 53.9819C43.6761 59.9175 45.5046 67.7378 51.3839 71.4792C55.491 74.0954 60.7233 74.0954 64.8585 71.5355L73.6353 80.1716L77.5455 76.2614L68.8812 67.5409ZM58.1634 67.8222C56.2982 67.8222 54.5094 67.0813 53.1905 65.7624C51.8717 64.4435 51.1307 62.6547 51.1307 60.7895C51.1307 58.9244 51.8717 57.1356 53.1905 55.8167C54.5094 54.4978 56.2982 53.7569 58.1634 53.7569C60.0286 53.7569 61.8174 54.4978 63.1362 55.8167C64.4551 57.1356 65.1961 58.9244 65.1961 60.7895C65.1961 62.6547 64.4551 64.4435 63.1362 65.7624C61.8174 67.0813 60.0286 67.8222 58.1634 67.8222Z" fill="#E88B8B"/>
</svg>
