<svg width="100" height="100" viewBox="0 0 100 100" fill="none" xmlns="http://www.w3.org/2000/svg">
<rect width="100" height="100" fill="white"/>
<path d="M49.5 48.5357C47.3688 48.5357 45.3249 47.6891 43.8179 46.1821C42.3109 44.6751 41.4643 42.6312 41.4643 40.5C41.4643 38.3688 42.3109 36.3249 43.8179 34.8179C45.3249 33.3109 47.3688 32.4643 49.5 32.4643C51.6312 32.4643 53.6751 33.3109 55.1821 34.8179C56.6891 36.3249 57.5357 38.3688 57.5357 40.5C57.5357 41.5553 57.3279 42.6002 56.924 43.5751C56.5202 44.5501 55.9283 45.4359 55.1821 46.1821C54.4359 46.9283 53.5501 47.5202 52.5751 47.924C51.6002 48.3279 50.5553 48.5357 49.5 48.5357ZM49.5 18C43.5326 18 37.8097 20.3705 33.5901 24.5901C29.3705 28.8097 27 34.5326 27 40.5C27 57.375 49.5 82.2857 49.5 82.2857C49.5 82.2857 72 57.375 72 40.5C72 34.5326 69.6295 28.8097 65.4099 24.5901C61.1903 20.3705 55.4674 18 49.5 18Z" fill="#E88B8B"/>
</svg>
