<svg width="44" height="44" viewBox="0 0 44 44" fill="none" xmlns="http://www.w3.org/2000/svg">
<path d="M25.667 5.5V12.8333C25.667 13.3196 25.8601 13.7859 26.204 14.1297C26.5478 14.4735 27.0141 14.6667 27.5003 14.6667H34.8337" stroke="currentColor" stroke-width="2" stroke-linecap="round" stroke-linejoin="round"/>
<path d="M22.0003 38.5H12.8337C11.8612 38.5 10.9286 38.1137 10.2409 37.4261C9.5533 36.7384 9.16699 35.8058 9.16699 34.8333V9.16667C9.16699 8.19421 9.5533 7.26158 10.2409 6.57394C10.9286 5.88631 11.8612 5.5 12.8337 5.5H25.667L34.8337 14.6667V22.9167" stroke="currentColor" stroke-width="2" stroke-linecap="round" stroke-linejoin="round"/>
<path d="M33.917 35.75L38.5003 40.3333M25.667 32.0833C25.667 33.2989 26.1499 34.4647 27.0094 35.3242C27.869 36.1838 29.0347 36.6667 30.2503 36.6667C31.4659 36.6667 32.6317 36.1838 33.4912 35.3242C34.3508 34.4647 34.8337 33.2989 34.8337 32.0833C34.8337 30.8678 34.3508 29.702 33.4912 28.8424C32.6317 27.9829 31.4659 27.5 30.2503 27.5C29.0347 27.5 27.869 27.9829 27.0094 28.8424C26.1499 29.702 25.667 30.8678 25.667 32.0833Z" stroke="currentColor" stroke-width="2" stroke-linecap="round" stroke-linejoin="round"/>
</svg>
