<svg width="44" height="44" viewBox="0 0 44 44" fill="none" xmlns="http://www.w3.org/2000/svg">
<path d="M20.5 21.8816C23.2614 21.8816 25.5 19.643 25.5 16.8816C25.5 14.1202 23.2614 11.8816 20.5 11.8816C17.7386 11.8816 15.5 14.1202 15.5 16.8816C15.5 19.643 17.7386 21.8816 20.5 21.8816Z" stroke="currentColor" stroke-width="2" stroke-linecap="round" stroke-linejoin="round"/>
<path d="M20.5 38.5485L10.5 28.5485C8.2357 26.5232 6.6397 23.8582 5.92319 20.906C5.20668 17.9539 5.40344 14.8537 6.48742 12.0158C7.5714 9.17793 9.49151 6.73605 11.9937 5.01331C14.4958 3.29056 17.4621 2.36816 20.5 2.36816C23.5379 2.36816 26.5042 3.29056 29.0063 5.01331C31.5085 6.73605 33.4286 9.17793 34.5126 12.0158C35.5966 14.8537 35.7933 17.9539 35.0768 20.906C34.3603 23.8582 32.7643 26.5232 30.5 28.5485L20.5 38.5485Z" stroke="currentColor" stroke-width="2" stroke-linecap="round" stroke-linejoin="round"/>
</svg>
