<svg width="44" height="44" viewBox="0 0 44 44" fill="none" xmlns="http://www.w3.org/2000/svg">
<rect width="44" height="44" fill="white"/>
<path d="M4 33.3888C4 30.0883 4.92187 26.923 6.56282 24.5892C8.20376 22.2554 10.4294 20.9443 12.75 20.9443H30.25C32.5706 20.9443 34.7962 22.2554 36.4372 24.5892C38.0781 26.923 39 30.0883 39 33.3888C39 35.039 38.5391 36.6217 37.7186 37.7886C36.8981 38.9554 35.7853 39.611 34.625 39.611H8.375C7.21468 39.611 6.10188 38.9554 5.28141 37.7886C4.46094 36.6217 4 35.039 4 33.3888Z" stroke="currentColor" stroke-width="2" stroke-linejoin="round"/>
<path d="M21.4997 17.8333C25.0435 17.8333 27.9163 14.9605 27.9163 11.4167C27.9163 7.87284 25.0435 5 21.4997 5C17.9558 5 15.083 7.87284 15.083 11.4167C15.083 14.9605 17.9558 17.8333 21.4997 17.8333Z" stroke="currentColor" stroke-width="2"/>
</svg>
